<svg viewBox="0 0 53 48" fill="none" xmlns="http://www.w3.org/2000/svg">
  <path fill-rule="evenodd" clip-rule="evenodd"
        d="M0 2.6066C0.01 1.1722 1.1696 0.0114 2.604 0H49.896C51.3345 0 52.5 1.1681 52.5 2.6066V44.6434C52.49 46.0778 51.3304 47.2386 49.896 47.25H2.604C1.1655 47.2486 0 46.082 0 44.6434V2.6066ZM47.2503 5.2501H5.2503V42.0001L29.6418 17.6033C30.6669 16.5786 32.3285 16.5786 33.3536 17.6033L47.2503 31.5263V5.2501ZM10.4997 15.7499C10.4997 18.6494 12.8502 20.9999 15.7497 20.9999C18.6492 20.9999 20.9997 18.6494 20.9997 15.7499C20.9997 12.8504 18.6492 10.4999 15.7497 10.4999C12.8502 10.4999 10.4997 12.8504 10.4997 15.7499Z"
        fill="#99a1af"/>
</svg>
